<svg width="160" height="52" viewBox="0 0 160 52" fill="none" xmlns="http://www.w3.org/2000/svg">
<path d="M35.9113 27.4326C36.0865 27.6606 41.6212 25.0632 41.7764 21.7048C42.0986 18.5636 38.6287 19.6539 37.0819 22.8874C35.9217 25.0125 33.7323 32.4766 42.1427 27.6099C42.1427 27.6099 41.59 34.2178 45.3211 35.932V19.3874C45.3211 17.5548 44.2845 16.0693 43.0063 16.0693H21.0179C19.7397 16.0693 18.7031 17.5548 18.7031 19.3874V29.2175C18.7031 31.2932 19.8772 32.9758 21.325 32.9758H40.7801" stroke="#4633BF" stroke-width="1.3" stroke-miterlimit="10"/>
<path d="M28.9922 27.4327C29.1673 27.6606 34.702 25.0632 34.8573 21.7049C35.1794 18.5636 31.7096 19.6539 30.1628 22.8874C29.0026 25.0125 26.8132 32.4767 35.2235 27.6099L35.7412 27.3074" stroke="#4633BF" stroke-width="1.3" stroke-miterlimit="10"/>
<path d="M22.0742 27.4327C22.2494 27.6606 27.7841 25.0632 27.9393 21.7049C28.2615 18.5636 24.7916 19.6539 23.2448 22.8874C22.0846 25.0125 19.8952 32.4767 28.3056 27.6099L28.7799 27.3508" stroke="#4633BF" stroke-width="1.3" stroke-miterlimit="10"/>
<path d="M53.9727 33.2636V21.9189C53.9727 20.4066 54.4609 19.1659 55.4377 18.1983C56.4142 17.2307 57.6462 16.7471 59.1337 16.7471H60.4323C60.521 16.7471 60.5932 16.7752 60.6485 16.8303C60.7039 16.8862 60.732 16.9585 60.732 17.0469V17.9145C60.732 18.093 60.6321 18.1814 60.4323 18.1814H59.1337C58.0457 18.1814 57.1636 18.5207 56.4868 19.1993C55.8096 19.8779 55.4715 20.7844 55.4715 21.9185V33.2631C55.4715 33.4417 55.3716 33.5301 55.1718 33.5301H54.2728C54.073 33.5301 53.9731 33.4417 53.9731 33.2631L53.9727 33.2636Z" fill="#4633BF"/>
<path d="M63.5272 32.3784C62.639 31.4333 62.1953 30.1931 62.1953 28.6583V21.7514C62.1953 20.239 62.6502 18.9984 63.5605 18.0308C64.4703 17.0631 65.669 16.5791 67.1566 16.5791C68.6442 16.5791 69.8148 17.0575 70.7359 18.0139C71.6569 18.9707 72.1179 20.1719 72.1179 21.6175C72.1179 23.0631 71.6517 24.2032 70.7194 25.1041C69.7871 26.005 68.5218 26.4552 66.9235 26.4552H63.6937V28.6574C63.6937 29.7698 63.9934 30.6707 64.5927 31.3601C65.1921 32.05 66.0353 32.3945 67.1233 32.3945C68.2113 32.3945 68.988 32.0556 69.5873 31.3766C70.1867 30.6984 70.5084 29.814 70.5529 28.7241C70.5529 28.5465 70.6528 28.4572 70.8526 28.4572H71.7516C71.9514 28.4572 72.0513 28.5465 72.0513 28.7241C72.0068 30.2373 71.5406 31.4602 70.6528 32.3945C69.7646 33.3287 68.5884 33.7959 67.1233 33.7959C65.6582 33.7959 64.415 33.3235 63.5272 32.3776V32.3784ZM66.9235 25.0209C68.0997 25.0209 69.01 24.7097 69.6539 24.0866C70.2974 23.4639 70.6195 22.641 70.6195 21.6175C70.6195 20.5939 70.3034 19.7047 69.6708 19.0149C69.0381 18.3254 68.2001 17.9805 67.1566 17.9805C66.1131 17.9805 65.2197 18.3254 64.6096 19.0149C63.999 19.7047 63.6937 20.6165 63.6937 21.7509V25.0209H66.9235Z" fill="#4633BF"/>
<path d="M91.1676 17.998C92.0108 18.9656 92.4329 20.195 92.4329 21.6848V33.263C92.4329 33.4416 92.3438 33.53 92.1665 33.53H91.2342C91.0565 33.53 90.9678 33.4416 90.9678 33.263V21.6848C90.9678 20.5729 90.6902 19.6776 90.1354 18.9986C89.5801 18.3204 88.8035 17.9807 87.8046 17.9807C86.8056 17.9807 86.0895 18.3256 85.5235 19.015C84.9574 19.7049 84.6746 20.595 84.6746 21.6844V33.2626C84.6746 33.4411 84.5855 33.5295 84.4082 33.5295H83.4759C83.2982 33.5295 83.2095 33.4411 83.2095 33.2626V21.6844C83.2095 20.5945 82.9267 19.7049 82.3607 19.015C81.7946 18.3256 81.034 17.9807 80.0796 17.9807C79.1252 17.9807 78.3036 18.32 77.7488 18.9986C77.1935 19.6776 76.9163 20.5724 76.9163 21.6848V33.263C76.9163 33.4416 76.8165 33.53 76.6167 33.53H75.7176C75.5179 33.53 75.418 33.4416 75.418 33.263V21.6848C75.418 20.1946 75.8396 18.9652 76.6833 17.998C77.5265 17.0304 78.6586 16.5463 80.0796 16.5463C80.9453 16.5463 81.7164 16.7855 82.394 17.2635C83.0707 17.7419 83.587 18.3928 83.9421 19.2152C84.275 18.4144 84.7853 17.7696 85.4738 17.28C86.1618 16.7907 86.9388 16.5459 87.8046 16.5459C89.2031 16.5459 90.3239 17.0299 91.1676 17.9976V17.998Z" fill="#4633BF"/>
<path d="M97.4256 32.3784C96.5374 31.4333 96.0938 30.1931 96.0938 28.6583V21.7514C96.0938 20.239 96.5487 18.9984 97.4589 18.0308C98.3688 17.0631 99.5675 16.5791 101.055 16.5791C102.543 16.5791 103.713 17.0575 104.634 18.0139C105.555 18.9707 106.016 20.1719 106.016 21.6175C106.016 23.0631 105.55 24.2032 104.618 25.1041C103.686 26.005 102.42 26.4552 100.822 26.4552H97.5921V28.6574C97.5921 29.7698 97.8918 30.6707 98.4912 31.3601C99.0905 32.05 99.9338 32.3945 101.022 32.3945C102.11 32.3945 102.886 32.0556 103.486 31.3766C104.085 30.6984 104.407 29.814 104.451 28.7241C104.451 28.5465 104.551 28.4572 104.751 28.4572H105.65C105.85 28.4572 105.95 28.5465 105.95 28.7241C105.905 30.2373 105.439 31.4602 104.551 32.3945C103.663 33.3287 102.487 33.7959 101.022 33.7959C99.5567 33.7959 98.3134 33.3235 97.4256 32.3776V32.3784ZM100.822 25.0209C101.998 25.0209 102.908 24.7097 103.552 24.0866C104.196 23.4639 104.518 22.641 104.518 21.6175C104.518 20.5939 104.202 19.7047 103.569 19.0149C102.937 18.3254 102.099 17.9805 101.055 17.9805C100.012 17.9805 99.1182 18.3254 98.508 19.0149C97.8974 19.7047 97.5921 20.6165 97.5921 21.7509V25.0209H100.822Z" fill="#4633BF"/>
<path d="M117.537 16.8467H118.502C118.702 16.8467 118.769 16.9468 118.702 17.147L114.573 32.9294C114.462 33.3965 114.174 33.6301 113.708 33.6301H113.008C112.542 33.6301 112.253 33.3965 112.143 32.9294L107.98 17.147V17.0469C107.98 16.9134 108.058 16.8467 108.214 16.8467H109.179C109.334 16.8467 109.434 16.9247 109.479 17.0802L113.341 32.2287L117.237 17.0802C117.281 16.9251 117.381 16.8467 117.537 16.8467Z" fill="#4633BF"/>
<path d="M122.265 32.3784C121.377 31.4333 120.934 30.1931 120.934 28.6583V21.7514C120.934 20.239 121.389 18.9984 122.299 18.0308C123.209 17.0631 124.407 16.5791 125.895 16.5791C127.382 16.5791 128.553 17.0575 129.474 18.0139C130.395 18.9707 130.856 20.1719 130.856 21.6175C130.856 23.0631 130.39 24.2032 129.458 25.1041C128.525 26.005 127.26 26.4552 125.662 26.4552H122.432V28.6574C122.432 29.7698 122.732 30.6707 123.331 31.3601C123.93 32.05 124.774 32.3945 125.862 32.3945C126.95 32.3945 127.726 32.0556 128.326 31.3766C128.925 30.6984 129.247 29.814 129.291 28.7241C129.291 28.5465 129.391 28.4572 129.591 28.4572H130.49C130.69 28.4572 130.79 28.5465 130.79 28.7241C130.745 30.2373 130.279 31.4602 129.391 32.3945C128.503 33.3287 127.327 33.7959 125.862 33.7959C124.397 33.7959 123.153 33.3235 122.265 32.3776V32.3784ZM125.662 25.0209C126.838 25.0209 127.748 24.7097 128.392 24.0866C129.036 23.4639 129.358 22.641 129.358 21.6175C129.358 20.5939 129.042 19.7047 128.409 19.0149C127.776 18.3254 126.938 17.9805 125.895 17.9805C124.851 17.9805 123.958 18.3254 123.348 19.0149C122.737 19.7047 122.432 20.6165 122.432 21.7509V25.0209H125.662Z" fill="#4633BF"/>
<path d="M134.152 33.2636V21.9189C134.152 20.4066 134.641 19.1659 135.617 18.1983C136.594 17.2307 137.826 16.7471 139.313 16.7471H140.612C140.701 16.7471 140.773 16.7752 140.828 16.8303C140.884 16.8862 140.912 16.9585 140.912 17.0469V17.9145C140.912 18.093 140.812 18.1814 140.612 18.1814H139.313C138.225 18.1814 137.343 18.5207 136.667 19.1993C135.989 19.8779 135.651 20.7844 135.651 21.9185V33.2631C135.651 33.4417 135.551 33.5301 135.351 33.5301H134.452C134.253 33.5301 134.153 33.4417 134.153 33.2631L134.152 33.2636Z" fill="#4633BF"/>
</svg>
